<svg width="32" height="32" viewBox="0 0 32 32" fill="none" xmlns="http://www.w3.org/2000/svg">
<path d="M3.21098 21.5811C1.73167 19.3953 0.541266 16.765 1.10812 14.1931C1.65669 11.6958 4.10881 9.58834 6.58469 9.04554C7.19546 8.93438 7.81663 8.8904 8.43704 8.91439L17.4885 8.92532L15.4496 12.6794L9.37692 12.7122C8.62904 12.7122 7.86104 12.7231 7.16069 12.9872C6.67638 13.1695 6.24446 13.4675 5.90298 13.8551C5.56149 14.2427 5.32091 14.708 5.20241 15.21C5.08392 15.7121 5.09114 16.2354 5.22345 16.734C5.35576 17.2326 5.60909 17.6911 5.96115 18.0692L3.21098 21.5811Z" fill="white"/>
<path d="M5.33212 28.9964L8.31268 25.2477H24.7845C24.7845 25.2477 29.0194 23.8415 26.6661 19.7832L28.5477 16.1894C28.5477 16.1894 32.9362 19.0018 31.2155 24.3151C31.2155 24.3151 30.5902 27.5938 25.4391 28.9945C25.4203 28.9972 25.4012 28.9972 25.3824 28.9945L5.33212 28.9964Z" fill="white"/>
<path d="M3.76503 29H0L10.8233 14H14.2738L13.6466 19.4699H14.1184L19.765 8.84335H23.8427L22.2738 19.1566H22.7456L28.3922 7.28233L26.9806 6.81239L31.3728 4L32 8.84335L30.5883 8.06193L23.8427 23.0638H18.8233L20.0777 14.3133H19.765L15.2155 23.3752H10.8233L11.1378 18.6885H10.5106L3.76503 29Z" fill="#00AAAA"/>
</svg>
