<svg width="229" height="43" viewBox="0 0 229 43" fill="none" xmlns="http://www.w3.org/2000/svg">
<g clip-path="url(#clip0_1_43)">
<path d="M197.549 7.38441H194.126V11.1753H197.549V7.38441Z" fill="#FF6100"/>
<path d="M5.46483 30.2394C2.94715 26.4798 0.921183 21.9558 1.88593 17.5321C2.81956 13.2368 6.99287 9.61195 11.2066 8.67832C12.2461 8.48714 13.3033 8.41149 14.3592 8.45275L29.764 8.47155L26.294 14.9286L15.9588 14.985C14.686 14.985 13.3789 15.0038 12.1869 15.4581C11.3627 15.7715 10.6276 16.2841 10.0464 16.9508C9.46523 17.6175 9.05577 18.4178 8.8541 19.2813C8.65243 20.1448 8.66473 21.0449 8.88991 21.9025C9.11509 22.76 9.54624 23.5487 10.1454 24.1991L5.46483 30.2394Z" fill="#5A5B5F"/>
<path d="M9.07486 42.9937L14.1476 36.5461H42.1813C42.1813 36.5461 49.3889 34.1274 45.3836 27.1472L48.5859 20.9658C48.5859 20.9658 56.055 25.8031 53.1265 34.942C53.1265 34.942 52.0621 40.5813 43.2954 42.9906C43.2634 42.9952 43.2309 42.9952 43.1989 42.9906L9.07486 42.9937Z" fill="#5A5B5F"/>
<path d="M6.40779 43H0L18.4205 17.2H24.293L23.2255 26.6083H24.0284L33.6386 8.33057H40.5785L37.9084 26.0694H38.7113L48.3214 5.64561L45.9189 4.8373L53.3941 0L54.4616 8.33057L52.059 6.98652L40.5785 32.7897H32.0359L34.1707 17.7389H33.6386L25.8957 33.3254H18.4205L18.9557 25.2643H17.8883L6.40779 43Z" fill="#00AAAA"/>
<path d="M61.2148 38.8833V34.8981H59.6837V34.4971H63.1941V34.8981H61.6629V38.8833H61.2148Z" fill="#282828"/>
<path d="M65.6464 38.8833H65.1858V34.4971H65.6464V38.8833ZM68.4162 36.8594H65.5966V36.4521H68.4162V36.8594ZM68.3726 34.4971H68.827V38.8833H68.3726V34.4971Z" fill="#282828"/>
<path d="M71.9515 38.4823H74.5719V38.8833H71.4909V34.4971H74.4785V34.8981H71.9515V38.4823ZM71.9017 36.4584H74.2046V36.8531H71.9079L71.9017 36.4584Z" fill="#282828"/>
<path d="M79.7753 38.8833V34.4971H81.406C81.7324 34.4892 82.0567 34.5501 82.3583 34.6757C82.6119 34.781 82.8285 34.9599 82.9807 35.1895C83.129 35.4333 83.2037 35.7152 83.1955 36.0009C83.2032 36.2827 83.1285 36.5605 82.9807 36.7998C82.8294 37.0303 82.6124 37.2094 82.3583 37.3137C82.0567 37.4393 81.7324 37.5001 81.406 37.4922H80.0305L80.2359 37.2792V38.8833H79.7753ZM80.2359 37.3168L80.0305 37.0975H81.3936C81.748 37.1233 82.1 37.0211 82.3863 36.8093C82.5001 36.7092 82.5897 36.5845 82.6485 36.4444C82.7072 36.3044 82.7336 36.1527 82.7256 36.0009C82.7336 35.8482 82.7073 35.6956 82.6486 35.5546C82.5898 35.4135 82.5002 35.2877 82.3863 35.1864C82.0994 34.9757 81.7479 34.8736 81.3936 34.8981H80.0305L80.2359 34.6788V37.3168ZM82.7505 38.8833L81.6301 37.2917H82.128L83.2546 38.8833H82.7505Z" fill="#282828"/>
<path d="M85.9808 38.4823H88.6012V38.8833H85.5202V34.4971H88.5078V34.8981H85.9808V38.4823ZM85.931 36.4584H88.2339V36.8531H85.931V36.4584Z" fill="#282828"/>
<path d="M90.2319 38.8833L92.2237 34.4971H92.678L94.6698 38.8833H94.1843L92.3544 34.7666H92.5411L90.7112 38.8833H90.2319ZM91.0162 37.7116L91.1531 37.3356H93.6926L93.8295 37.7116H91.0162Z" fill="#282828"/>
<path d="M96.6366 38.8833V34.4971H97.0972V38.4823H99.5371V38.8833H96.6366Z" fill="#282828"/>
<path d="M104.896 38.4823H107.516V38.8833H104.436V34.4971H107.423V34.8981H104.896V38.4823ZM104.846 36.4584H107.149V36.8531H104.846V36.4584Z" fill="#282828"/>
<path d="M109.135 38.8833L111.127 34.4971H111.581L113.573 38.8833H113.087L111.257 34.7666H111.444L109.614 38.8833H109.135ZM109.919 37.7116L110.056 37.3356H112.589L112.726 37.7116H109.919Z" fill="#282828"/>
<path d="M115.539 38.8833V34.4971H117.17C117.496 34.4892 117.821 34.5501 118.122 34.6757C118.376 34.781 118.593 34.9599 118.745 35.1895C118.893 35.4333 118.968 35.7152 118.96 36.0009C118.967 36.2827 118.893 36.5605 118.745 36.7998C118.594 37.0303 118.377 37.2094 118.122 37.3137C117.821 37.4393 117.496 37.5001 117.17 37.4922H115.788L115.994 37.2792V38.8833H115.539ZM116 37.3168L115.795 37.0975H117.158C117.512 37.1233 117.864 37.0211 118.15 36.8093C118.264 36.7092 118.354 36.5845 118.413 36.4444C118.471 36.3044 118.498 36.1527 118.49 36.0009C118.498 35.8482 118.471 35.6956 118.413 35.5546C118.354 35.4135 118.264 35.2877 118.15 35.1864C117.864 34.9757 117.512 34.8736 117.158 34.8981H115.788L115.994 34.6788L116 37.3168ZM118.515 38.8833L117.394 37.2917H117.892L119.019 38.8833H118.515Z" fill="#282828"/>
<path d="M121.284 38.8833V34.4971H121.664L124.67 38.2943H124.471V34.4971H124.925V38.8833H124.546L121.546 35.0736H121.745V38.8833H121.284Z" fill="#282828"/>
<path d="M127.589 38.8833V34.4971H128.05V38.8833H127.589Z" fill="#282828"/>
<path d="M130.726 38.8833V34.4971H131.106L134.1 38.2943H133.901V34.4971H134.355V38.8833H133.975L130.975 35.0736H131.175V38.8833H130.726Z" fill="#282828"/>
<path d="M138.93 38.9209C138.611 38.9274 138.294 38.8709 137.996 38.7548C137.725 38.6501 137.477 38.4914 137.268 38.288C137.061 38.0878 136.898 37.8467 136.789 37.58C136.561 37.009 136.561 36.3714 136.789 35.8004C136.899 35.5333 137.063 35.2922 137.271 35.0924C137.482 34.89 137.731 34.7314 138.002 34.6256C138.3 34.511 138.617 34.4546 138.936 34.4595C139.247 34.4566 139.556 34.5097 139.848 34.6162C140.117 34.7181 140.358 34.8811 140.554 35.0924L140.268 35.3869C140.097 35.2136 139.891 35.0791 139.664 34.9921C139.436 34.9121 139.196 34.8718 138.955 34.8731C138.701 34.871 138.448 34.9167 138.211 35.0078C137.991 35.0949 137.79 35.2248 137.62 35.39C137.453 35.5543 137.319 35.7502 137.228 35.9665C137.041 36.4296 137.041 36.9477 137.228 37.4108C137.319 37.6294 137.453 37.8273 137.622 37.9926C137.791 38.1578 137.991 38.2871 138.211 38.3726C138.446 38.4649 138.696 38.5107 138.949 38.5073C139.189 38.5086 139.427 38.4705 139.655 38.3945C139.889 38.3163 140.101 38.1856 140.277 38.0123L140.539 38.3632C140.326 38.5498 140.079 38.6915 139.811 38.7799C139.527 38.8751 139.229 38.9228 138.93 38.9209ZM140.088 38.2943V36.6777H140.529V38.3507L140.088 38.2943Z" fill="#282828"/>
<path d="M147.152 38.9209C146.834 38.9225 146.518 38.8684 146.218 38.7611C145.961 38.6799 145.725 38.5394 145.531 38.3507L145.711 37.9935C145.89 38.1617 146.102 38.2908 146.334 38.3726C146.594 38.4758 146.872 38.5279 147.152 38.5261C147.38 38.5336 147.606 38.4985 147.821 38.4227C147.972 38.37 148.105 38.2729 148.201 38.1439C148.281 38.0306 148.324 37.8946 148.322 37.7554C148.328 37.6038 148.276 37.4558 148.176 37.3419C148.067 37.233 147.937 37.1486 147.793 37.0944C147.622 37.031 147.447 36.9777 147.27 36.9346C147.077 36.8907 146.888 36.8406 146.698 36.7873C146.514 36.7398 146.338 36.6693 146.172 36.5774C146.017 36.4953 145.884 36.3758 145.786 36.2297C145.68 36.0603 145.629 35.8623 145.64 35.6626C145.638 35.4506 145.697 35.2427 145.811 35.0642C145.94 34.8697 146.123 34.7173 146.337 34.6256C146.624 34.5055 146.934 34.4489 147.245 34.4595C147.492 34.4601 147.737 34.4949 147.974 34.5629C148.195 34.6244 148.405 34.7206 148.596 34.848L148.44 35.2177C148.258 35.0951 148.057 35.002 147.846 34.942C147.643 34.8852 147.434 34.8557 147.224 34.8543C147.003 34.8481 146.783 34.8842 146.576 34.9608C146.426 35.0168 146.295 35.1159 146.2 35.2459C146.119 35.3648 146.076 35.506 146.078 35.6501C146.074 35.7253 146.085 35.8007 146.11 35.8717C146.135 35.9427 146.174 36.0079 146.225 36.0636C146.331 36.1767 146.463 36.2607 146.611 36.308C146.782 36.372 146.958 36.4244 147.136 36.4646L147.706 36.615C147.886 36.6684 148.061 36.7386 148.229 36.8249C148.382 36.9075 148.514 37.0243 148.615 37.1664C148.718 37.3333 148.769 37.5276 148.761 37.7241C148.761 37.9343 148.701 38.1401 148.587 38.3162C148.454 38.5098 148.269 38.6618 148.055 38.7548C147.769 38.874 147.461 38.9307 147.152 38.9209Z" fill="#282828"/>
<path d="M151.808 38.8833V34.8981H150.277V34.4971H153.799V34.8981H152.268V38.8833H151.808Z" fill="#282828"/>
<path d="M154.864 38.8833L156.856 34.4971H157.31L159.302 38.8833H158.816L156.986 34.7666H157.173L155.343 38.8833H154.864ZM155.648 37.7116L155.785 37.3356H158.318L158.455 37.7116H155.648Z" fill="#282828"/>
<path d="M161.268 38.8833V34.4971H162.899C163.226 34.4892 163.55 34.5501 163.852 34.6757C164.105 34.781 164.322 34.9599 164.474 35.1895C164.622 35.4333 164.697 35.7152 164.689 36.0009C164.696 36.2827 164.622 36.5605 164.474 36.7998C164.323 37.0303 164.106 37.2094 163.852 37.3137C163.55 37.4393 163.226 37.5001 162.899 37.4922H161.536L161.742 37.2792V38.8833H161.268ZM161.729 37.3168L161.524 37.0975H162.887C163.241 37.1233 163.593 37.0211 163.88 36.8093C163.993 36.7092 164.083 36.5845 164.142 36.4444C164.2 36.3044 164.227 36.1527 164.219 36.0009C164.227 35.8482 164.2 35.6956 164.142 35.5546C164.083 35.4135 163.993 35.2877 163.88 35.1864C163.593 34.9757 163.241 34.8736 162.887 34.8981H161.536L161.742 34.6788L161.729 37.3168ZM164.244 38.8833L163.123 37.2917H163.621L164.748 38.8833H164.244Z" fill="#282828"/>
<path d="M167.798 38.8833V34.8981H166.266V34.4971H169.789V34.8981H168.258V38.8833H167.798Z" fill="#282828"/>
<path d="M172.901 38.9209C172.583 38.9225 172.268 38.8684 171.968 38.7611C171.71 38.6799 171.475 38.5394 171.28 38.3507L171.461 37.9935C171.64 38.1617 171.852 38.2908 172.083 38.3726C172.344 38.4758 172.621 38.5279 172.901 38.5261C173.129 38.5336 173.356 38.4985 173.571 38.4227C173.722 38.37 173.854 38.2729 173.95 38.1439C174.03 38.0306 174.073 37.8946 174.072 37.7554C174.077 37.6038 174.025 37.4558 173.925 37.3419C173.817 37.233 173.686 37.1486 173.543 37.0944C173.371 37.031 173.197 36.9777 173.02 36.9346C172.827 36.8907 172.637 36.8406 172.447 36.7873C172.264 36.7398 172.087 36.6693 171.921 36.5774C171.766 36.4953 171.633 36.3758 171.535 36.2297C171.43 36.0603 171.379 35.8623 171.389 35.6626C171.387 35.4506 171.447 35.2427 171.56 35.0642C171.689 34.8697 171.872 34.7173 172.086 34.6256C172.374 34.5055 172.684 34.4489 172.995 34.4595C173.241 34.4601 173.486 34.4949 173.723 34.5629C173.944 34.6244 174.154 34.7206 174.345 34.848L174.19 35.2177C174.007 35.0951 173.807 35.002 173.595 34.942C173.393 34.8852 173.183 34.8557 172.973 34.8543C172.753 34.8481 172.533 34.8842 172.326 34.9608C172.175 35.0168 172.044 35.1159 171.949 35.2459C171.868 35.3648 171.826 35.506 171.828 35.6501C171.824 35.7253 171.834 35.8007 171.86 35.8717C171.885 35.9427 171.924 36.0079 171.974 36.0636C172.08 36.1767 172.213 36.2607 172.36 36.308C172.532 36.372 172.707 36.4244 172.886 36.4646L173.455 36.615C173.636 36.6684 173.811 36.7386 173.978 36.8249C174.131 36.9075 174.263 37.0243 174.364 37.1664C174.467 37.3333 174.518 37.5276 174.51 37.7241C174.511 37.9343 174.45 38.1401 174.336 38.3162C174.203 38.5098 174.019 38.6618 173.804 38.7548C173.518 38.874 173.211 38.9307 172.901 38.9209Z" fill="#282828"/>
<path d="M180.106 38.8833H179.648V34.4971H180.106V38.8833ZM182.879 36.8594H180.056V36.4521H182.879V36.8594ZM182.832 34.4971H183.29V38.8833H182.832V34.4971Z" fill="#282828"/>
<path d="M186.411 38.4823H189.031V38.8833H185.954V34.4971H188.938V34.8981H186.411V38.4823ZM186.361 36.4584H188.664V36.8531H186.361V36.4584Z" fill="#282828"/>
<path d="M191.359 38.8833V34.4971H192.99C193.316 34.4886 193.641 34.5494 193.942 34.6757C194.196 34.7802 194.413 34.9592 194.565 35.1895C194.713 35.4333 194.788 35.7152 194.779 36.0009C194.787 36.2827 194.713 36.5605 194.565 36.7999C194.414 37.031 194.197 37.2102 193.942 37.3137C193.641 37.4399 193.316 37.5008 192.99 37.4922H191.614L191.82 37.2792V38.8833H191.359ZM191.82 37.3168L191.614 37.0975H192.968C193.322 37.1234 193.673 37.0212 193.958 36.8093C194.072 36.7097 194.162 36.585 194.221 36.4449C194.28 36.3047 194.306 36.1528 194.297 36.0009C194.306 35.8481 194.28 35.6953 194.221 35.5542C194.162 35.413 194.072 35.2872 193.958 35.1864C193.672 34.9757 193.322 34.8736 192.968 34.8981H191.602L191.807 34.6788L191.82 37.3168ZM194.334 38.8833L193.214 37.2917H193.712L194.839 38.8833H194.334Z" fill="#282828"/>
<path d="M197.565 38.4823H200.185V38.8833H197.104V34.4971H200.092V34.8981H197.565V38.4823ZM197.515 36.4584H199.815V36.8531H197.512L197.515 36.4584Z" fill="#282828"/>
<path d="M202.525 38.9209C202.482 38.9216 202.438 38.9131 202.398 38.8958C202.358 38.8785 202.322 38.8529 202.292 38.8206C202.229 38.7552 202.194 38.6673 202.196 38.5763C202.194 38.5311 202.202 38.4861 202.219 38.444C202.235 38.402 202.26 38.3638 202.292 38.3319C202.323 38.3015 202.359 38.2775 202.399 38.2614C202.439 38.2453 202.482 38.2373 202.525 38.2379C202.57 38.235 202.615 38.2419 202.656 38.258C202.698 38.2741 202.736 38.299 202.767 38.3311C202.799 38.3632 202.823 38.4017 202.838 38.444C202.853 38.4863 202.859 38.5314 202.855 38.5763C202.857 38.6215 202.849 38.6664 202.832 38.7084C202.816 38.7505 202.791 38.7886 202.759 38.8206C202.729 38.8529 202.693 38.8785 202.653 38.8958C202.613 38.9131 202.569 38.9216 202.525 38.9209Z" fill="#282828"/>
<path d="M205.105 38.9209C205.062 38.9216 205.018 38.9131 204.978 38.8958C204.938 38.8785 204.902 38.8529 204.872 38.8206C204.809 38.7552 204.774 38.6673 204.775 38.5763C204.774 38.5311 204.782 38.4861 204.799 38.444C204.815 38.402 204.84 38.3638 204.872 38.3319C204.903 38.3015 204.939 38.2775 204.979 38.2614C205.019 38.2453 205.062 38.2373 205.105 38.2379C205.15 38.235 205.195 38.2419 205.236 38.258C205.278 38.2741 205.316 38.299 205.347 38.3311C205.378 38.3632 205.403 38.4017 205.418 38.444C205.433 38.4863 205.439 38.5314 205.435 38.5763C205.437 38.6215 205.429 38.6664 205.412 38.7084C205.395 38.7505 205.371 38.7886 205.339 38.8206C205.309 38.8529 205.273 38.8785 205.233 38.8958C205.192 38.9131 205.149 38.9216 205.105 38.9209Z" fill="#282828"/>
<path d="M207.654 38.9209C207.61 38.9216 207.567 38.9131 207.527 38.8958C207.487 38.8785 207.45 38.8529 207.421 38.8206C207.358 38.7552 207.323 38.6673 207.324 38.5763C207.323 38.5311 207.331 38.4861 207.347 38.444C207.364 38.402 207.389 38.3638 207.421 38.3319C207.452 38.3015 207.488 38.2775 207.528 38.2614C207.568 38.2453 207.611 38.2373 207.654 38.2379C207.699 38.235 207.743 38.2419 207.785 38.258C207.827 38.2741 207.865 38.299 207.896 38.3311C207.927 38.3632 207.951 38.4017 207.967 38.444C207.982 38.4863 207.988 38.5314 207.984 38.5763C207.985 38.6215 207.977 38.6664 207.961 38.7084C207.944 38.7505 207.919 38.7886 207.888 38.8206C207.858 38.8529 207.822 38.8785 207.781 38.8958C207.741 38.9131 207.698 38.9216 207.654 38.9209Z" fill="#282828"/>
<path d="M60.555 30.2551V8.011H69.9847C70.9874 7.99828 71.9789 8.22368 72.8789 8.66893C73.7391 9.09856 74.5142 9.68249 75.1663 10.3921C75.8145 11.0944 76.3264 11.9126 76.6757 12.8045C77.0252 13.681 77.2048 14.6169 77.2047 15.5615C77.2031 16.823 76.8988 18.0655 76.3178 19.1832C75.7481 20.3171 74.9022 21.2872 73.8592 22.0028C72.7698 22.7367 71.4819 23.1142 70.1714 23.0837H65.6589V30.2582L60.555 30.2551ZM65.6589 18.5691H69.8291C70.2103 18.5775 70.585 18.4682 70.9027 18.2558C71.2572 17.9984 71.5323 17.6454 71.6963 17.2376C71.9173 16.713 72.0235 16.1467 72.0075 15.5771C72.0319 14.9784 71.9145 14.3824 71.6652 13.8383C71.4728 13.4284 71.1642 13.0851 70.7782 12.8514C70.4341 12.6469 70.0419 12.5387 69.6423 12.5381H65.6589V18.5691Z" fill="#00AAAA"/>
<path d="M98.1491 30.2551V16.9713L93.3565 26.6208H90.5805L85.819 16.9713V30.2551H80.7151V8.011H86.2547L91.9809 19.6343L97.7072 8.011H103.247V30.2551H98.1491Z" fill="#00AAAA"/>
<path d="M121.521 14.5276C121.308 14.3612 121.085 14.2094 120.852 14.0733C119.85 13.4601 118.765 12.9958 117.631 12.6948C116.981 12.5186 116.312 12.4291 115.639 12.4285C114.934 12.3886 114.233 12.5504 113.616 12.8953C113.387 13.0383 113.2 13.2403 113.074 13.4804C112.948 13.7205 112.888 13.9901 112.9 14.2613C112.895 14.4848 112.941 14.7065 113.036 14.9088C113.13 15.1111 113.27 15.2885 113.445 15.4267C113.912 15.7796 114.439 16.043 115.001 16.2037C115.686 16.4126 116.526 16.6559 117.522 16.9337C118.788 17.2706 120.019 17.7334 121.194 18.3153C122.15 18.7732 122.97 19.474 123.575 20.3486C124.125 21.1841 124.4 22.2817 124.4 23.6414C124.428 24.7305 124.199 25.8108 123.73 26.7931C123.305 27.6515 122.661 28.3804 121.863 28.9048C121.045 29.4423 120.139 29.8315 119.187 30.0546C118.183 30.2948 117.154 30.4147 116.121 30.4117C115.008 30.4077 113.898 30.2922 112.807 30.0671C111.696 29.8432 110.607 29.5182 109.555 29.0959C108.56 28.7011 107.602 28.2188 106.692 27.6547L108.901 23.1432C109.154 23.3784 109.436 23.5786 109.742 23.7385C110.291 24.0573 110.857 24.3449 111.438 24.6001C112.17 24.924 112.924 25.1962 113.694 25.4147C114.503 25.6523 115.341 25.7736 116.184 25.7749C117.117 25.7749 117.807 25.6277 118.253 25.3332C118.46 25.2092 118.631 25.0324 118.749 24.8206C118.866 24.6088 118.926 24.3695 118.922 24.127C118.926 23.8693 118.863 23.6151 118.741 23.3889C118.618 23.1627 118.439 22.9723 118.222 22.8362C117.633 22.4572 116.994 22.164 116.324 21.9653C115.525 21.7042 114.607 21.4295 113.569 21.1413C112.409 20.7859 111.288 20.3113 110.224 19.7252C109.415 19.2867 108.738 18.6375 108.263 17.8454C107.818 16.9933 107.603 16.0381 107.641 15.0759C107.592 13.6704 107.978 12.2844 108.746 11.1095C109.49 10.0354 110.52 9.19391 111.718 8.68146C113.005 8.12411 114.394 7.84346 115.795 7.85749C116.813 7.85251 117.827 7.97885 118.813 8.23344C119.739 8.47381 120.645 8.7881 121.521 9.17333C122.285 9.50352 123.024 9.89101 123.73 10.3325L121.521 14.5276Z" fill="#00AAAA"/>
<path d="M149.063 27.1534V30.2551H133.907V8.011H148.777V11.1126H137.417V17.4726H147.283V20.3549H137.417V27.1534H149.063Z" fill="#00AAAA"/>
<path d="M161.418 30.4117C159.942 30.4295 158.483 30.1024 157.154 29.4562C155.885 28.8324 154.748 27.9651 153.809 26.9028C151.92 24.7608 150.874 21.9974 150.868 19.1331C150.863 17.6787 151.138 16.2372 151.677 14.8879C152.205 13.5587 152.97 12.3377 153.933 11.285C154.884 10.2407 156.025 9.38984 157.294 8.77858C158.611 8.14725 160.053 7.82584 161.511 7.83869C163.004 7.81434 164.481 8.14722 165.821 8.80992C167.085 9.44931 168.211 10.3329 169.136 11.4103C170.061 12.483 170.789 13.7138 171.283 15.0445C171.778 16.3663 172.031 17.7674 172.03 19.18C172.035 20.6213 171.771 22.0506 171.252 23.3939C170.742 24.7252 169.987 25.9476 169.027 26.9968C168.08 28.0458 166.938 28.8973 165.666 29.5032C164.335 30.1204 162.883 30.4308 161.418 30.4117ZM161.48 27.2474C162.517 27.2675 163.543 27.0308 164.468 26.5582C165.33 26.1061 166.084 25.4699 166.677 24.6941C167.28 23.9081 167.743 23.023 168.047 22.078C168.356 21.1274 168.514 20.1334 168.513 19.1331C168.518 18.094 168.35 17.0615 168.015 16.0784C167.699 15.1361 167.214 14.26 166.584 13.4937C165.97 12.7489 165.213 12.1362 164.359 11.6922C163.467 11.2367 162.48 11.0055 161.48 11.0187C160.438 10.9951 159.406 11.2319 158.477 11.7079C157.626 12.1648 156.883 12.8006 156.298 13.572C155.696 14.358 155.232 15.2431 154.929 16.1881C154.62 17.1386 154.462 18.1327 154.462 19.1331C154.458 20.1708 154.621 21.2023 154.945 22.1877C155.249 23.1289 155.724 24.0053 156.345 24.7724C156.951 25.5195 157.703 26.1328 158.555 26.5739C159.461 27.0331 160.465 27.2642 161.48 27.2474ZM161.916 22.5167H165.308L171.999 30.2551H168.607L161.916 22.5167Z" fill="#00AAAA"/>
<path d="M175.018 23.9453V13.995H178.441V23.256C178.441 24.7035 178.706 25.7948 179.235 26.53C179.499 26.8943 179.849 27.1861 180.254 27.3787C180.659 27.5714 181.106 27.6587 181.553 27.6328C182.196 27.6291 182.832 27.4926 183.42 27.2318C184.053 26.9498 184.624 26.5453 185.101 26.0412C185.63 25.4921 186.052 24.8482 186.346 24.1427V13.995H189.769V26.389C189.745 26.6807 189.822 26.9718 189.987 27.213C190.08 27.3088 190.191 27.3844 190.314 27.435C190.437 27.4857 190.57 27.5104 190.703 27.5075V30.2645C190.41 30.3206 190.113 30.3572 189.816 30.3741C189.577 30.3741 189.37 30.3898 189.193 30.4211C188.621 30.4243 188.063 30.2383 187.606 29.8917C187.405 29.7346 187.237 29.5377 187.114 29.313C186.991 29.0883 186.915 28.8406 186.89 28.5852L186.828 27.0031C186.144 28.1237 185.17 29.0364 184.012 29.6442C182.827 30.2727 181.507 30.5956 180.168 30.584C178.467 30.584 177.181 30.0243 176.309 28.9048C175.438 27.7853 175.007 26.1321 175.018 23.9453Z" fill="#00AAAA"/>
<path d="M197.549 13.8697H194.126V30.2551H197.549V13.8697Z" fill="#00AAAA"/>
<path d="M210.707 29.4718C210.436 29.5972 210.085 29.7475 209.618 29.9261C209.131 30.1131 208.632 30.2649 208.124 30.3804C207.573 30.5069 207.009 30.57 206.444 30.5684C205.771 30.5736 205.104 30.4414 204.483 30.1799C203.893 29.9315 203.39 29.5129 203.036 28.9768C202.648 28.3518 202.459 27.6231 202.491 26.8871V16.658H200.313V13.995H202.491V8.60626H205.915V13.995H209.462V16.658H205.915V25.7436C205.914 25.9791 205.962 26.2122 206.056 26.428C206.149 26.6437 206.287 26.8375 206.459 26.9968C206.797 27.2724 207.223 27.416 207.657 27.4009C208.132 27.4015 208.602 27.3111 209.042 27.1346C209.487 26.9561 209.792 26.8214 209.976 26.743L210.707 29.4718Z" fill="#00AAAA"/>
<path d="M214.025 35.5749C214.358 35.6219 214.687 35.672 215.008 35.7284C215.266 35.779 215.53 35.7959 215.792 35.7785C216.148 35.8041 216.5 35.6921 216.776 35.4652C217.147 35.1047 217.437 34.6676 217.625 34.1838C217.914 33.5572 218.259 32.6539 218.662 31.4738L211.526 14.0106H215.375L220.709 27.733L225.446 14.0106H229.012L221.077 35.5153C220.85 36.1965 220.484 36.8221 220.001 37.3511C219.519 37.8801 218.931 38.3008 218.276 38.5856C217.512 38.9102 216.686 39.059 215.858 39.0211C215.579 39.0437 215.299 39.0321 215.024 38.9867C214.734 38.9428 214.401 38.877 214.056 38.7862L214.025 35.5749Z" fill="#00AAAA"/>
</g>
<defs>
<clipPath id="clip0_1_43">
<rect width="229" height="43" fill="white"/>
</clipPath>
</defs>
</svg>
