<svg width="238" height="51" viewBox="0 0 238 51" fill="none" xmlns="http://www.w3.org/2000/svg">
<path d="M201.549 7.38441H198.126V11.1753H201.549V7.38441Z" fill="#FF6100"/>
<g filter="url(#filter0_d_11_2)">
<path d="M9.46483 30.2394C6.94715 26.4798 4.92118 21.9558 5.88593 17.5321C6.81956 13.2368 10.9929 9.61195 15.2066 8.67832C16.2461 8.48714 17.3033 8.41149 18.3592 8.45275L33.764 8.47155L30.294 14.9286L19.9588 14.985C18.686 14.985 17.3789 15.0038 16.1869 15.4581C15.3627 15.7715 14.6276 16.2841 14.0464 16.9508C13.4652 17.6175 13.0558 18.4178 12.8541 19.2813C12.6524 20.1448 12.6647 21.0449 12.8899 21.9025C13.1151 22.76 13.5462 23.5487 14.1454 24.1991L9.46483 30.2394Z" fill="#DADADA"/>
<path d="M13.0749 42.9937L18.1476 36.5461H46.1813C46.1813 36.5461 53.3889 34.1274 49.3836 27.1472L52.5859 20.9658C52.5859 20.9658 60.055 25.8031 57.1265 34.942C57.1265 34.942 56.0621 40.5813 47.2954 42.9906C47.2634 42.9952 47.2309 42.9952 47.1989 42.9906L13.0749 42.9937Z" fill="#DADADA"/>
<path d="M10.4078 43H4L22.4205 17.2H28.293L27.2255 26.6083H28.0284L37.6386 8.33057H44.5785L41.9084 26.0694H42.7113L52.3214 5.64561L49.9189 4.8373L57.3941 0L58.4616 8.33057L56.059 6.98652L44.5785 32.7897H36.0359L38.1707 17.7389H37.6386L29.8957 33.3254H22.4205L22.9557 25.2643H21.8883L10.4078 43Z" fill="white"/>
<path d="M65.2148 38.8833V34.8981H63.6837V34.4971H67.1941V34.8981H65.6629V38.8833H65.2148Z" fill="white"/>
<path d="M69.6464 38.8833H69.1858V34.4971H69.6464V38.8833ZM72.4162 36.8594H69.5966V36.4521H72.4162V36.8594ZM72.3726 34.4971H72.827V38.8833H72.3726V34.4971Z" fill="white"/>
<path d="M75.9515 38.4823H78.5719V38.8833H75.4909V34.4971H78.4785V34.8981H75.9515V38.4823ZM75.9017 36.4584H78.2046V36.8531H75.9079L75.9017 36.4584Z" fill="white"/>
<path d="M83.7753 38.8833V34.4971H85.406C85.7324 34.4892 86.0567 34.5501 86.3583 34.6757C86.6119 34.781 86.8285 34.9599 86.9807 35.1895C87.129 35.4333 87.2037 35.7152 87.1955 36.0009C87.2032 36.2827 87.1285 36.5605 86.9807 36.7998C86.8294 37.0303 86.6124 37.2094 86.3583 37.3137C86.0567 37.4393 85.7324 37.5001 85.406 37.4922H84.0305L84.2359 37.2792V38.8833H83.7753ZM84.2359 37.3168L84.0305 37.0975H85.3936C85.748 37.1233 86.1 37.0211 86.3863 36.8093C86.5001 36.7092 86.5897 36.5845 86.6485 36.4444C86.7072 36.3044 86.7336 36.1527 86.7256 36.0009C86.7336 35.8482 86.7073 35.6956 86.6486 35.5546C86.5898 35.4135 86.5002 35.2877 86.3863 35.1864C86.0994 34.9757 85.7479 34.8736 85.3936 34.8981H84.0305L84.2359 34.6788V37.3168ZM86.7505 38.8833L85.6301 37.2917H86.128L87.2546 38.8833H86.7505Z" fill="white"/>
<path d="M89.9808 38.4823H92.6012V38.8833H89.5202V34.4971H92.5078V34.8981H89.9808V38.4823ZM89.931 36.4584H92.2339V36.8531H89.931V36.4584Z" fill="white"/>
<path d="M94.2319 38.8833L96.2237 34.4971H96.678L98.6698 38.8833H98.1843L96.3544 34.7666H96.5411L94.7112 38.8833H94.2319ZM95.0162 37.7116L95.1531 37.3356H97.6926L97.8295 37.7116H95.0162Z" fill="white"/>
<path d="M100.637 38.8833V34.4971H101.097V38.4823H103.537V38.8833H100.637Z" fill="white"/>
<path d="M108.896 38.4823H111.516V38.8833H108.436V34.4971H111.423V34.8981H108.896V38.4823ZM108.846 36.4584H111.149V36.8531H108.846V36.4584Z" fill="white"/>
<path d="M113.135 38.8833L115.127 34.4971H115.581L117.573 38.8833H117.087L115.257 34.7666H115.444L113.614 38.8833H113.135ZM113.919 37.7116L114.056 37.3356H116.589L116.726 37.7116H113.919Z" fill="white"/>
<path d="M119.539 38.8833V34.4971H121.17C121.496 34.4892 121.821 34.5501 122.122 34.6757C122.376 34.781 122.593 34.9599 122.745 35.1895C122.893 35.4333 122.968 35.7152 122.96 36.0009C122.967 36.2827 122.893 36.5605 122.745 36.7998C122.594 37.0303 122.377 37.2094 122.122 37.3137C121.821 37.4393 121.496 37.5001 121.17 37.4922H119.788L119.994 37.2792V38.8833H119.539ZM120 37.3168L119.795 37.0975H121.158C121.512 37.1233 121.864 37.0211 122.15 36.8093C122.264 36.7092 122.354 36.5845 122.413 36.4444C122.471 36.3044 122.498 36.1527 122.49 36.0009C122.498 35.8482 122.471 35.6956 122.413 35.5546C122.354 35.4135 122.264 35.2877 122.15 35.1864C121.864 34.9757 121.512 34.8736 121.158 34.8981H119.788L119.994 34.6788L120 37.3168ZM122.515 38.8833L121.394 37.2917H121.892L123.019 38.8833H122.515Z" fill="white"/>
<path d="M125.284 38.8833V34.4971H125.664L128.67 38.2943H128.471V34.4971H128.926V38.8833H128.546L125.546 35.0736H125.745V38.8833H125.284Z" fill="white"/>
<path d="M131.589 38.8833V34.4971H132.05V38.8833H131.589Z" fill="white"/>
<path d="M134.726 38.8833V34.4971H135.106L138.1 38.2943H137.901V34.4971H138.355V38.8833H137.975L134.975 35.0736H135.175V38.8833H134.726Z" fill="white"/>
<path d="M142.93 38.9209C142.611 38.9274 142.294 38.8709 141.996 38.7548C141.725 38.6501 141.477 38.4914 141.268 38.288C141.062 38.0878 140.898 37.8467 140.789 37.58C140.561 37.009 140.561 36.3714 140.789 35.8004C140.899 35.5333 141.063 35.2922 141.271 35.0924C141.482 34.89 141.731 34.7314 142.002 34.6256C142.3 34.511 142.617 34.4546 142.936 34.4595C143.247 34.4566 143.556 34.5097 143.848 34.6162C144.117 34.7181 144.358 34.8811 144.554 35.0924L144.268 35.3869C144.097 35.2136 143.891 35.0791 143.664 34.9921C143.436 34.9121 143.196 34.8718 142.955 34.8731C142.701 34.871 142.448 34.9167 142.211 35.0078C141.991 35.0949 141.79 35.2248 141.62 35.39C141.453 35.5543 141.319 35.7502 141.228 35.9665C141.041 36.4296 141.041 36.9477 141.228 37.4108C141.319 37.6294 141.453 37.8273 141.622 37.9926C141.791 38.1578 141.991 38.2871 142.211 38.3726C142.446 38.4649 142.696 38.5107 142.949 38.5073C143.189 38.5086 143.427 38.4705 143.655 38.3945C143.889 38.3163 144.101 38.1856 144.277 38.0123L144.539 38.3632C144.326 38.5498 144.079 38.6915 143.811 38.7799C143.527 38.8751 143.229 38.9228 142.93 38.9209ZM144.088 38.2943V36.6777H144.53V38.3507L144.088 38.2943Z" fill="white"/>
<path d="M151.152 38.9209C150.834 38.9225 150.518 38.8684 150.218 38.7611C149.961 38.6799 149.725 38.5394 149.531 38.3507L149.711 37.9935C149.89 38.1617 150.102 38.2908 150.334 38.3726C150.594 38.4758 150.872 38.5279 151.152 38.5261C151.38 38.5336 151.606 38.4985 151.821 38.4227C151.972 38.37 152.105 38.2729 152.201 38.1439C152.281 38.0306 152.324 37.8946 152.322 37.7554C152.328 37.6038 152.276 37.4558 152.176 37.3419C152.067 37.233 151.937 37.1486 151.793 37.0944C151.622 37.031 151.447 36.9777 151.27 36.9346C151.077 36.8907 150.888 36.8406 150.698 36.7873C150.514 36.7398 150.338 36.6693 150.172 36.5774C150.017 36.4953 149.884 36.3758 149.786 36.2297C149.68 36.0603 149.629 35.8623 149.64 35.6626C149.638 35.4506 149.697 35.2427 149.811 35.0642C149.94 34.8697 150.123 34.7173 150.337 34.6256C150.624 34.5055 150.934 34.4489 151.245 34.4595C151.492 34.4601 151.737 34.4949 151.974 34.5629C152.195 34.6244 152.405 34.7206 152.596 34.848L152.44 35.2177C152.258 35.0951 152.057 35.002 151.846 34.942C151.643 34.8852 151.434 34.8557 151.224 34.8543C151.003 34.8481 150.783 34.8842 150.576 34.9608C150.426 35.0168 150.295 35.1159 150.2 35.2459C150.119 35.3648 150.076 35.506 150.078 35.6501C150.074 35.7253 150.085 35.8007 150.11 35.8717C150.135 35.9427 150.174 36.0079 150.225 36.0636C150.331 36.1767 150.463 36.2607 150.611 36.308C150.782 36.372 150.958 36.4244 151.136 36.4646L151.706 36.615C151.886 36.6684 152.061 36.7386 152.229 36.8249C152.382 36.9075 152.514 37.0243 152.615 37.1664C152.718 37.3333 152.769 37.5276 152.761 37.7241C152.761 37.9343 152.701 38.1401 152.587 38.3162C152.454 38.5098 152.269 38.6618 152.055 38.7548C151.769 38.874 151.461 38.9307 151.152 38.9209Z" fill="white"/>
<path d="M155.808 38.8833V34.8981H154.277V34.4971H157.799V34.8981H156.268V38.8833H155.808Z" fill="white"/>
<path d="M158.864 38.8833L160.856 34.4971H161.31L163.302 38.8833H162.816L160.986 34.7666H161.173L159.343 38.8833H158.864ZM159.648 37.7116L159.785 37.3356H162.318L162.455 37.7116H159.648Z" fill="white"/>
<path d="M165.268 38.8833V34.4971H166.899C167.226 34.4892 167.55 34.5501 167.852 34.6757C168.105 34.781 168.322 34.9599 168.474 35.1895C168.622 35.4333 168.697 35.7152 168.689 36.0009C168.696 36.2827 168.622 36.5605 168.474 36.7998C168.323 37.0303 168.106 37.2094 167.852 37.3137C167.55 37.4393 167.226 37.5001 166.899 37.4922H165.536L165.742 37.2792V38.8833H165.268ZM165.729 37.3168L165.524 37.0975H166.887C167.241 37.1233 167.593 37.0211 167.88 36.8093C167.993 36.7092 168.083 36.5845 168.142 36.4444C168.2 36.3044 168.227 36.1527 168.219 36.0009C168.227 35.8482 168.2 35.6956 168.142 35.5546C168.083 35.4135 167.993 35.2877 167.88 35.1864C167.593 34.9757 167.241 34.8736 166.887 34.8981H165.536L165.742 34.6788L165.729 37.3168ZM168.244 38.8833L167.123 37.2917H167.621L168.748 38.8833H168.244Z" fill="white"/>
<path d="M171.798 38.8833V34.8981H170.266V34.4971H173.789V34.8981H172.258V38.8833H171.798Z" fill="white"/>
<path d="M176.901 38.9209C176.583 38.9225 176.268 38.8684 175.968 38.7611C175.71 38.6799 175.475 38.5394 175.28 38.3507L175.461 37.9935C175.64 38.1617 175.852 38.2908 176.083 38.3726C176.344 38.4758 176.621 38.5279 176.901 38.5261C177.129 38.5336 177.356 38.4985 177.571 38.4227C177.722 38.37 177.854 38.2729 177.95 38.1439C178.03 38.0306 178.073 37.8946 178.072 37.7554C178.077 37.6038 178.025 37.4558 177.925 37.3419C177.817 37.233 177.686 37.1486 177.543 37.0944C177.371 37.031 177.197 36.9777 177.02 36.9346C176.827 36.8907 176.637 36.8406 176.447 36.7873C176.264 36.7398 176.087 36.6693 175.921 36.5774C175.766 36.4953 175.633 36.3758 175.535 36.2297C175.43 36.0603 175.379 35.8623 175.389 35.6626C175.387 35.4506 175.447 35.2427 175.56 35.0642C175.689 34.8697 175.872 34.7173 176.086 34.6256C176.374 34.5055 176.684 34.4489 176.995 34.4595C177.241 34.4601 177.486 34.4949 177.723 34.5629C177.944 34.6244 178.154 34.7206 178.345 34.848L178.19 35.2177C178.007 35.0951 177.807 35.002 177.595 34.942C177.393 34.8852 177.183 34.8557 176.973 34.8543C176.753 34.8481 176.533 34.8842 176.326 34.9608C176.175 35.0168 176.044 35.1159 175.949 35.2459C175.868 35.3648 175.826 35.506 175.828 35.6501C175.824 35.7253 175.834 35.8007 175.86 35.8717C175.885 35.9427 175.924 36.0079 175.974 36.0636C176.08 36.1767 176.213 36.2607 176.36 36.308C176.532 36.372 176.707 36.4244 176.886 36.4646L177.455 36.615C177.636 36.6684 177.811 36.7386 177.978 36.8249C178.131 36.9075 178.263 37.0243 178.364 37.1664C178.467 37.3333 178.518 37.5276 178.51 37.7241C178.511 37.9343 178.45 38.1401 178.336 38.3162C178.203 38.5098 178.019 38.6618 177.804 38.7548C177.518 38.874 177.211 38.9307 176.901 38.9209Z" fill="white"/>
<path d="M184.106 38.8833H183.648V34.4971H184.106V38.8833ZM186.879 36.8594H184.056V36.4521H186.879V36.8594ZM186.832 34.4971H187.29V38.8833H186.832V34.4971Z" fill="white"/>
<path d="M190.411 38.4823H193.031V38.8833H189.954V34.4971H192.938V34.8981H190.411V38.4823ZM190.361 36.4584H192.664V36.8531H190.361V36.4584Z" fill="white"/>
<path d="M195.359 38.8833V34.4971H196.99C197.316 34.4886 197.641 34.5494 197.942 34.6757C198.196 34.7802 198.413 34.9592 198.565 35.1895C198.713 35.4333 198.788 35.7152 198.779 36.0009C198.787 36.2827 198.713 36.5605 198.565 36.7999C198.414 37.031 198.197 37.2102 197.942 37.3137C197.641 37.4399 197.316 37.5008 196.99 37.4922H195.614L195.82 37.2792V38.8833H195.359ZM195.82 37.3168L195.614 37.0975H196.968C197.322 37.1234 197.673 37.0212 197.958 36.8093C198.072 36.7097 198.162 36.585 198.221 36.4449C198.28 36.3047 198.306 36.1528 198.297 36.0009C198.306 35.8481 198.28 35.6953 198.221 35.5542C198.162 35.413 198.072 35.2872 197.958 35.1864C197.672 34.9757 197.322 34.8736 196.968 34.8981H195.602L195.807 34.6788L195.82 37.3168ZM198.334 38.8833L197.214 37.2917H197.712L198.839 38.8833H198.334Z" fill="white"/>
<path d="M201.565 38.4823H204.185V38.8833H201.104V34.4971H204.092V34.8981H201.565V38.4823ZM201.515 36.4584H203.815V36.8531H201.512L201.515 36.4584Z" fill="white"/>
<path d="M206.525 38.9209C206.482 38.9216 206.438 38.9131 206.398 38.8958C206.358 38.8785 206.322 38.8529 206.292 38.8206C206.229 38.7552 206.194 38.6673 206.196 38.5763C206.194 38.5311 206.202 38.4861 206.219 38.444C206.235 38.402 206.26 38.3638 206.292 38.3319C206.323 38.3015 206.359 38.2775 206.399 38.2614C206.439 38.2453 206.482 38.2373 206.525 38.2379C206.57 38.235 206.615 38.2419 206.656 38.258C206.698 38.2741 206.736 38.299 206.767 38.3311C206.799 38.3632 206.823 38.4017 206.838 38.444C206.853 38.4863 206.859 38.5314 206.855 38.5763C206.857 38.6215 206.849 38.6664 206.832 38.7084C206.816 38.7505 206.791 38.7886 206.759 38.8206C206.729 38.8529 206.693 38.8785 206.653 38.8958C206.613 38.9131 206.569 38.9216 206.525 38.9209Z" fill="white"/>
<path d="M209.105 38.9209C209.062 38.9216 209.018 38.9131 208.978 38.8958C208.938 38.8785 208.902 38.8529 208.872 38.8206C208.809 38.7552 208.774 38.6673 208.775 38.5763C208.774 38.5311 208.782 38.4861 208.799 38.444C208.815 38.402 208.84 38.3638 208.872 38.3319C208.903 38.3015 208.939 38.2775 208.979 38.2614C209.019 38.2453 209.062 38.2373 209.105 38.2379C209.15 38.235 209.195 38.2419 209.236 38.258C209.278 38.2741 209.316 38.299 209.347 38.3311C209.378 38.3632 209.403 38.4017 209.418 38.444C209.433 38.4863 209.439 38.5314 209.435 38.5763C209.437 38.6215 209.429 38.6664 209.412 38.7084C209.395 38.7505 209.371 38.7886 209.339 38.8206C209.309 38.8529 209.273 38.8785 209.233 38.8958C209.192 38.9131 209.149 38.9216 209.105 38.9209Z" fill="white"/>
<path d="M211.654 38.9209C211.61 38.9216 211.567 38.9131 211.527 38.8958C211.487 38.8785 211.45 38.8529 211.421 38.8206C211.358 38.7552 211.323 38.6673 211.324 38.5763C211.323 38.5311 211.331 38.4861 211.347 38.444C211.364 38.402 211.389 38.3638 211.421 38.3319C211.452 38.3015 211.488 38.2775 211.528 38.2614C211.568 38.2453 211.611 38.2373 211.654 38.2379C211.699 38.235 211.743 38.2419 211.785 38.258C211.827 38.2741 211.865 38.299 211.896 38.3311C211.927 38.3632 211.951 38.4017 211.967 38.444C211.982 38.4863 211.988 38.5314 211.984 38.5763C211.985 38.6215 211.977 38.6664 211.961 38.7084C211.944 38.7505 211.919 38.7886 211.888 38.8206C211.858 38.8529 211.822 38.8785 211.781 38.8958C211.741 38.9131 211.698 38.9216 211.654 38.9209Z" fill="white"/>
<path d="M64.555 30.2551V8.011H73.9847C74.9874 7.99828 75.9789 8.22368 76.8789 8.66893C77.7391 9.09856 78.5142 9.68249 79.1663 10.3921C79.8145 11.0944 80.3264 11.9126 80.6757 12.8045C81.0252 13.681 81.2048 14.6169 81.2047 15.5615C81.2031 16.823 80.8988 18.0655 80.3178 19.1832C79.7481 20.3171 78.9022 21.2872 77.8592 22.0028C76.7698 22.7367 75.4819 23.1142 74.1714 23.0837H69.6589V30.2582L64.555 30.2551ZM69.6589 18.5691H73.8291C74.2103 18.5775 74.585 18.4682 74.9027 18.2558C75.2572 17.9984 75.5323 17.6454 75.6963 17.2376C75.9173 16.713 76.0235 16.1467 76.0075 15.5771C76.0319 14.9784 75.9145 14.3824 75.6652 13.8383C75.4728 13.4284 75.1642 13.0851 74.7782 12.8514C74.4341 12.6469 74.0419 12.5387 73.6423 12.5381H69.6589V18.5691Z" fill="white"/>
<path d="M102.149 30.2551V16.9713L97.3565 26.6208H94.5805L89.819 16.9713V30.2551H84.7151V8.011H90.2547L95.9809 19.6343L101.707 8.011H107.247V30.2551H102.149Z" fill="white"/>
<path d="M125.521 14.5276C125.308 14.3612 125.085 14.2094 124.852 14.0733C123.85 13.4601 122.765 12.9958 121.631 12.6948C120.981 12.5186 120.312 12.4291 119.639 12.4285C118.934 12.3886 118.233 12.5504 117.616 12.8953C117.387 13.0383 117.2 13.2403 117.074 13.4804C116.948 13.7205 116.888 13.9901 116.9 14.2613C116.895 14.4848 116.941 14.7065 117.036 14.9088C117.13 15.1111 117.27 15.2885 117.445 15.4267C117.912 15.7796 118.439 16.043 119.001 16.2037C119.686 16.4126 120.526 16.6559 121.522 16.9337C122.788 17.2706 124.019 17.7334 125.194 18.3153C126.15 18.7732 126.97 19.474 127.575 20.3486C128.125 21.1841 128.4 22.2817 128.4 23.6414C128.428 24.7305 128.199 25.8108 127.73 26.7931C127.305 27.6515 126.661 28.3804 125.863 28.9048C125.045 29.4423 124.139 29.8315 123.187 30.0546C122.183 30.2948 121.154 30.4147 120.121 30.4117C119.008 30.4077 117.898 30.2922 116.807 30.0671C115.696 29.8432 114.607 29.5182 113.555 29.0959C112.56 28.7011 111.602 28.2188 110.692 27.6547L112.901 23.1432C113.154 23.3784 113.436 23.5786 113.742 23.7385C114.291 24.0573 114.857 24.3449 115.438 24.6001C116.17 24.924 116.924 25.1962 117.694 25.4147C118.503 25.6523 119.341 25.7736 120.184 25.7749C121.117 25.7749 121.807 25.6277 122.253 25.3332C122.46 25.2092 122.631 25.0324 122.749 24.8206C122.866 24.6088 122.926 24.3695 122.922 24.127C122.926 23.8693 122.863 23.6151 122.741 23.3889C122.618 23.1627 122.439 22.9723 122.222 22.8362C121.633 22.4572 120.994 22.164 120.324 21.9653C119.525 21.7042 118.607 21.4295 117.569 21.1413C116.409 20.7859 115.288 20.3113 114.224 19.7252C113.415 19.2867 112.738 18.6375 112.263 17.8454C111.818 16.9933 111.603 16.0381 111.641 15.0759C111.592 13.6704 111.978 12.2844 112.746 11.1095C113.49 10.0354 114.52 9.19391 115.718 8.68146C117.005 8.12411 118.394 7.84346 119.795 7.85749C120.813 7.85251 121.827 7.97885 122.813 8.23344C123.739 8.47381 124.645 8.7881 125.521 9.17333C126.285 9.50352 127.024 9.89101 127.73 10.3325L125.521 14.5276Z" fill="white"/>
<path d="M153.063 27.1534V30.2551H137.907V8.011H152.777V11.1126H141.417V17.4726H151.283V20.3549H141.417V27.1534H153.063Z" fill="white"/>
<path d="M165.418 30.4117C163.942 30.4295 162.483 30.1024 161.154 29.4562C159.885 28.8324 158.748 27.9651 157.809 26.9028C155.92 24.7608 154.874 21.9974 154.868 19.1331C154.863 17.6787 155.138 16.2372 155.677 14.8879C156.205 13.5587 156.97 12.3377 157.933 11.285C158.884 10.2407 160.025 9.38984 161.294 8.77858C162.611 8.14725 164.053 7.82584 165.511 7.83869C167.004 7.81434 168.481 8.14722 169.821 8.80992C171.085 9.44931 172.211 10.3329 173.136 11.4103C174.061 12.483 174.789 13.7138 175.283 15.0445C175.778 16.3663 176.031 17.7674 176.03 19.18C176.035 20.6213 175.771 22.0506 175.252 23.3939C174.742 24.7252 173.987 25.9476 173.027 26.9968C172.08 28.0458 170.938 28.8973 169.666 29.5032C168.335 30.1204 166.883 30.4308 165.418 30.4117ZM165.48 27.2474C166.517 27.2675 167.543 27.0308 168.468 26.5582C169.33 26.1061 170.084 25.4699 170.677 24.6941C171.28 23.9081 171.743 23.023 172.047 22.078C172.356 21.1274 172.514 20.1334 172.513 19.1331C172.518 18.094 172.35 17.0615 172.015 16.0784C171.699 15.1361 171.214 14.26 170.584 13.4937C169.97 12.7489 169.213 12.1362 168.359 11.6922C167.467 11.2367 166.48 11.0055 165.48 11.0187C164.438 10.9951 163.406 11.2319 162.477 11.7079C161.626 12.1648 160.883 12.8006 160.298 13.572C159.696 14.358 159.232 15.2431 158.929 16.1881C158.62 17.1386 158.462 18.1327 158.462 19.1331C158.458 20.1708 158.621 21.2023 158.945 22.1877C159.249 23.1289 159.724 24.0053 160.345 24.7724C160.951 25.5195 161.703 26.1328 162.555 26.5739C163.461 27.0331 164.465 27.2642 165.48 27.2474ZM165.916 22.5167H169.308L175.999 30.2551H172.607L165.916 22.5167Z" fill="white"/>
<path d="M179.018 23.9453V13.995H182.441V23.256C182.441 24.7035 182.706 25.7948 183.235 26.53C183.499 26.8943 183.849 27.1861 184.254 27.3787C184.659 27.5714 185.106 27.6587 185.553 27.6328C186.196 27.6291 186.832 27.4926 187.42 27.2318C188.053 26.9498 188.624 26.5453 189.101 26.0412C189.63 25.4921 190.052 24.8482 190.346 24.1427V13.995H193.769V26.389C193.745 26.6807 193.822 26.9718 193.987 27.213C194.08 27.3088 194.191 27.3844 194.314 27.435C194.437 27.4857 194.57 27.5104 194.703 27.5075V30.2645C194.41 30.3206 194.113 30.3572 193.816 30.3741C193.577 30.3741 193.37 30.3898 193.193 30.4211C192.621 30.4243 192.063 30.2383 191.606 29.8917C191.405 29.7346 191.237 29.5377 191.114 29.313C190.991 29.0883 190.915 28.8406 190.89 28.5852L190.828 27.0031C190.144 28.1237 189.17 29.0364 188.012 29.6442C186.827 30.2727 185.507 30.5956 184.168 30.584C182.467 30.584 181.181 30.0243 180.309 28.9048C179.438 27.7853 179.007 26.1321 179.018 23.9453Z" fill="white"/>
<path d="M201.549 13.8697H198.126V30.2551H201.549V13.8697Z" fill="white"/>
<path d="M214.707 29.4718C214.436 29.5972 214.085 29.7475 213.618 29.9261C213.131 30.1131 212.632 30.2649 212.124 30.3804C211.573 30.5069 211.009 30.57 210.444 30.5684C209.771 30.5736 209.104 30.4414 208.483 30.1799C207.893 29.9315 207.39 29.5129 207.036 28.9768C206.648 28.3518 206.459 27.6231 206.491 26.8871V16.658H204.313V13.995H206.491V8.60626H209.915V13.995H213.462V16.658H209.915V25.7436C209.914 25.9791 209.962 26.2122 210.056 26.428C210.149 26.6437 210.287 26.8375 210.459 26.9968C210.797 27.2724 211.223 27.416 211.657 27.4009C212.132 27.4015 212.602 27.3111 213.042 27.1346C213.487 26.9561 213.792 26.8214 213.976 26.743L214.707 29.4718Z" fill="white"/>
<path d="M218.025 35.5749C218.358 35.6219 218.687 35.672 219.008 35.7284C219.266 35.779 219.53 35.7959 219.792 35.7785C220.148 35.8041 220.5 35.6921 220.776 35.4652C221.147 35.1047 221.437 34.6676 221.625 34.1838C221.914 33.5572 222.259 32.6539 222.662 31.4738L215.526 14.0106H219.375L224.709 27.733L229.446 14.0106H233.012L225.077 35.5153C224.85 36.1965 224.484 36.8221 224.001 37.3511C223.519 37.8801 222.931 38.3008 222.276 38.5856C221.512 38.9102 220.686 39.059 219.858 39.0211C219.579 39.0437 219.299 39.0321 219.024 38.9867C218.734 38.9428 218.401 38.877 218.056 38.7862L218.025 35.5749Z" fill="white"/>
</g>
<defs>
<filter id="filter0_d_11_2" x="0" y="0" width="237.012" height="51" filterUnits="userSpaceOnUse" color-interpolation-filters="sRGB">
<feFlood flood-opacity="0" result="BackgroundImageFix"/>
<feColorMatrix in="SourceAlpha" type="matrix" values="0 0 0 0 0 0 0 0 0 0 0 0 0 0 0 0 0 0 127 0" result="hardAlpha"/>
<feOffset dy="4"/>
<feGaussianBlur stdDeviation="2"/>
<feComposite in2="hardAlpha" operator="out"/>
<feColorMatrix type="matrix" values="0 0 0 0 0 0 0 0 0 0 0 0 0 0 0 0 0 0 0.25 0"/>
<feBlend mode="normal" in2="BackgroundImageFix" result="effect1_dropShadow_11_2"/>
<feBlend mode="normal" in="SourceGraphic" in2="effect1_dropShadow_11_2" result="shape"/>
</filter>
</defs>
</svg>
